<svg width="2120" height="1609" viewBox="0 0 2120 1609" fill="none" xmlns="http://www.w3.org/2000/svg">
    <g clip-path="url(#clip0)">
    <path opacity="0.9" d="M2036.95 595.516C2036.58 597.244 2036.23 598.972 2035.83 600.681C2023.09 659.423 2002.27 716.029 1971.32 768.013C1970.29 769.741 1969.26 771.469 1968.21 773.198C1947.8 806.644 1923.38 837.47 1895.49 864.99C1880.07 880.214 1863.26 894.681 1843.26 905.109C1815.24 919.751 1782.48 925.693 1750.29 930.548C1716.85 935.616 1682.94 939.849 1649.14 944.413C1637.13 946.005 1625.18 947.695 1613.31 949.481C1580.65 954.316 1548.22 959.909 1516.57 967.327C1477.45 976.473 1439.52 988.455 1403.7 1005.31C1400.84 1006.6 1398.01 1007.98 1395.21 1009.43C1392.42 1010.82 1389.6 1012.24 1386.84 1013.68C1384.08 1015.12 1381.37 1016.55 1378.67 1018.03C1377.27 1018.79 1375.87 1019.54 1374.49 1020.34C1373.11 1021.14 1371.75 1021.84 1370.41 1022.61C1366.38 1024.86 1362.41 1027.18 1358.45 1029.51L1358.3 1029.6C1355.68 1031.14 1353.09 1032.71 1350.53 1034.28C1335.89 1043.18 1321.56 1052.46 1307.23 1061.8L1298.22 1067.62L1284.26 1076.65C1281.54 1078.42 1278.76 1080.19 1276.02 1081.94C1274.08 1083.22 1272.14 1084.5 1270.02 1085.82C1259.85 1092.23 1249.54 1098.52 1238.96 1104.52C1236.45 1105.96 1233.93 1107.39 1231.38 1108.79C1210 1120.72 1187.64 1130.8 1164.55 1138.93L1164.24 1139.05C1152.62 1143.1 1140.76 1146.45 1128.74 1149.07C1121.81 1150.58 1114.86 1151.82 1107.83 1152.78C1089.04 1155.44 1069.98 1155.71 1051.13 1153.57C1014.1 1149.28 979.398 1135.07 942.387 1130.27C866.192 1120.56 792.19 1151.84 720.539 1176.35C702.92 1182.37 685.172 1188.01 667.295 1193.26C655.411 1196.78 643.489 1200.1 631.469 1203.3C557.828 1222.76 482.671 1235.94 406.805 1242.7C375.091 1245.81 343.187 1246.52 311.366 1244.82C299.269 1244.08 287.307 1242.88 275.56 1240.94C235.365 1234.72 197.888 1221.69 167.635 1197.83C142.858 1178.23 125.13 1152.7 111.634 1125.98C97.8196 1098.71 88.0657 1069.57 82.6823 1039.49C81.9444 1035.39 81.2842 1031.27 80.7405 1027.16C79.7696 1020.11 79.0447 1013.03 78.5657 1005.91C75.953 967.96 80.4846 929.855 91.9252 893.574C104.741 852.95 126.101 813.958 135.499 773.023C135.887 771.288 136.256 769.56 136.606 767.838C137.889 761.621 138.842 755.339 139.46 749.021C144.256 698.727 125.868 649.694 111.44 600.506C110.935 598.798 110.43 597.069 109.945 595.341C108.392 589.878 106.903 584.421 105.479 578.971C92.1194 526.968 88.4105 471.294 100.314 419.388C100.683 417.659 101.129 415.931 101.556 414.222C109.525 381.412 124.51 350.718 145.48 324.255C167.771 296.292 197.034 273.009 228.297 252.561C243.533 242.593 259.287 233.278 275.56 224.617C287.21 218.403 299.146 212.52 311.366 206.966C409.329 162.303 521.079 140.495 631.586 145.311C637.411 145.564 643.236 145.874 649.062 146.302C654.887 146.729 661.256 147.234 667.353 147.797C738.539 154.71 807.802 171.391 876.58 189.625C899.629 195.742 922.639 202.014 945.63 208.17C955.863 210.888 966.077 213.607 976.31 216.248C1026.43 229.2 1077.28 240.929 1128.78 249.687C1140.7 251.745 1152.64 253.623 1164.59 255.318C1206.07 261.416 1247.89 264.963 1289.81 265.941C1306.11 266.264 1322.41 266.122 1338.72 265.513C1346.96 265.216 1355.2 264.769 1363.44 264.173C1448.59 258.173 1530.88 238.094 1613.31 219.336C1625.23 216.617 1637.18 213.937 1649.14 211.296C1664.83 207.84 1680.52 204.5 1696.28 201.412C1794.4 182.129 1881.86 193.217 1973.09 233.006C1993.82 242.036 2014.54 252.949 2027.24 269.902C2039.94 286.855 2043.13 307.671 2045.5 327.77C2048.85 356.393 2051.05 385.385 2051.88 414.533C2051.88 416.242 2051.88 417.97 2052 419.698C2053.32 478.576 2048.93 538.017 2036.95 595.516Z" fill="#F3952A"/>
    <path d="M1503.81 747.389C1503.81 747.389 1525.89 639.013 1610.18 649.053C1610.18 649.053 1668.44 653.053 1680.42 691.191V775.488L1503.81 747.389Z" fill="#3A3768"/>
    <path d="M1965.43 787.547L1214.8 725.31L1118.47 745.389L1124.49 879.864L1131.05 880.66L1138.53 1082.6L1875.1 1215.05L1953.39 1148.81V929.906L1963.41 924.022L1965.43 787.547Z" fill="#D48A9B"/>
    <path opacity="0.05" d="M1966.44 787.547L1964.42 924.023L1883.14 962.161L1882.13 819.647L1966.44 787.547Z" fill="black"/>
    <path opacity="0.05" d="M1953.39 930.042L1954.39 1144.81L1876.11 1211.05L1881.14 962.161L1953.39 930.042Z" fill="black"/>
    <path opacity="0.05" d="M1132.06 888.7L1881.74 980.182L1882.13 962.821L1131.5 881.864L1132.06 888.7Z" fill="black"/>
    <path opacity="0.05" d="M1953.39 937.926V930.042L1879.12 962.821V980.22L1953.39 937.926Z" fill="black"/>
    <path d="M1117.46 745.389L1213.79 725.31L1964.42 787.547L1880.13 819.647L1117.46 745.389Z" fill="#EFC6CD"/>
    <path opacity="0.1" d="M1884.46 791.412L1921.3 793.82L1860.25 812.093L1829.16 809.86L1884.46 791.412Z" fill="black"/>
    <path d="M1884.46 789.8L1921.3 792.208L1860.25 810.5L1829.16 808.248L1884.46 789.8Z" fill="white"/>
    <path d="M1880.05 793.936C1881.51 793.315 1883.04 794.499 1884.6 794.791C1885.49 794.965 1886.4 794.791 1887.3 794.965C1889.1 795.198 1890.89 796.402 1892.62 795.8" fill="#D3DAE1"/>
    <path d="M1878.15 795.043C1879.59 794.422 1881.14 795.587 1882.69 795.898C1883.59 796.053 1884.5 795.897 1885.39 796.053C1887.2 796.305 1888.99 797.509 1890.71 796.907" fill="#D3DAE1"/>
    <path d="M1873.76 797.257C1875.22 796.635 1876.77 797.801 1878.33 798.092C1879.2 798.267 1880.13 798.092 1881.01 798.267C1882.83 798.519 1884.62 799.723 1886.33 799.102" fill="#D3DAE1"/>
    <path opacity="0.1" d="M1725.24 773.275L1762.07 775.702L1701.02 793.975L1669.93 791.722L1725.24 773.275Z" fill="black"/>
    <path d="M1725.24 771.682L1762.07 774.09L1701.02 792.363L1669.93 790.13L1725.24 771.682Z" fill="white"/>
    <path d="M1720.83 775.819C1722.28 775.197 1723.82 776.362 1725.37 776.673C1726.26 776.828 1727.18 776.673 1728.07 776.828C1729.88 777.081 1731.66 778.285 1733.39 777.683" fill="#D3DAE1"/>
    <path d="M1718.92 776.925C1720.36 776.304 1721.91 777.469 1723.47 777.76C1724.36 777.935 1725.27 777.76 1726.17 777.935C1727.97 778.188 1729.76 779.391 1731.49 778.77" fill="#D3DAE1"/>
    <path d="M1714.54 779.12C1715.99 778.498 1717.55 779.683 1719.1 779.974C1719.97 780.149 1720.91 779.974 1721.78 780.149C1723.6 780.382 1725.39 781.605 1727.1 780.984" fill="#D3DAE1"/>
    <path opacity="0.1" d="M1801.61 782.343L1838.46 784.751L1777.41 803.044L1746.3 800.791L1801.61 782.343Z" fill="black"/>
    <path d="M1801.61 780.751L1838.46 783.159L1777.41 801.432L1746.3 799.179L1801.61 780.751Z" fill="white"/>
    <path d="M1797.2 784.887C1798.65 784.266 1800.21 785.431 1801.76 785.722C1802.63 785.897 1803.55 785.722 1804.44 785.897C1806.25 786.13 1808.05 787.353 1809.76 786.732" fill="#D3DAE1"/>
    <path d="M1795.29 785.975C1796.75 785.353 1798.3 786.538 1799.86 786.829C1800.73 787.004 1801.64 786.829 1802.54 787.004C1804.34 787.237 1806.15 788.46 1807.86 787.839" fill="#D3DAE1"/>
    <path d="M1790.93 788.188C1792.36 787.567 1793.92 788.732 1795.47 789.043C1796.36 789.198 1797.28 789.043 1798.17 789.198C1799.97 789.45 1801.76 790.654 1803.49 790.052" fill="#D3DAE1"/>
    <path opacity="0.9" d="M967.629 1536.76C1184.77 1536.76 1360.8 1500.53 1360.8 1455.82C1360.8 1411.12 1184.77 1374.89 967.629 1374.89C750.486 1374.89 574.457 1411.12 574.457 1455.82C574.457 1500.53 750.486 1536.76 967.629 1536.76Z" fill="#F3952A"/>
    <path d="M1398.18 793.023C1393.99 756.167 1377.38 720.999 1377.38 720.999L1378.65 708.571C1378.65 708.571 1378.92 702.357 1378.51 693.036C1378.56 687.217 1379.32 681.425 1380.78 675.792C1384.18 665.015 1376.53 651.771 1375.68 650.548C1374.82 649.325 1376.1 625.692 1368.45 614.099C1360.8 602.506 1309.85 580.951 1309.85 580.951C1309.85 580.951 1307.11 575.223 1303.25 568.523L1303.6 567.843C1300.44 562.108 1296.52 556.824 1291.95 552.134C1288.82 548.794 1285.81 546.891 1283.38 547.823C1282.4 544.6 1281.64 541.309 1281.13 537.977C1281.64 538.113 1282.16 538.249 1282.66 538.346C1284.77 538.834 1286.95 538.887 1289.07 538.502C1293.81 537.434 1296.96 533.181 1299.6 529.181C1312.76 509.179 1324.1 487.236 1326.41 463.565C1327.03 458.733 1326.8 453.83 1325.73 449.078C1324.64 445.384 1323.12 441.831 1321.19 438.495C1317.79 431.65 1313.48 425.294 1308.37 419.601C1299.31 410.047 1286.8 404.202 1273.95 400.745C1259.46 396.85 1244.38 395.724 1229.48 397.424C1225.6 397.871 1221.71 398.512 1217.83 398.764C1212.9 398.981 1207.97 398.897 1203.05 398.512L1177.63 397.036L1177.52 396.648L1173.28 396.395C1171.61 399.716 1173.28 403.658 1175.36 406.765C1177.44 409.872 1179.83 413.115 1179.65 416.785C1179.48 420.455 1176.82 423.407 1174.74 426.494C1172.66 429.582 1171.09 433.621 1173.17 436.65C1173.46 437.069 1173.81 437.448 1174.2 437.777C1176.39 440.049 1180.22 440.301 1183.54 440.262H1184.12C1175.76 451.276 1171.23 464.727 1171.24 478.556C1171.3 490.374 1174.61 501.948 1180.8 512.011C1187 522.074 1195.85 530.238 1206.37 535.608C1206.74 536.871 1207.11 538.172 1207.46 539.492C1211.31 553.132 1212.69 567.35 1211.54 581.475L1211.09 582.446L1210.82 581.417C1210.82 581.417 1180.88 601.729 1171.98 607.108C1163.09 612.487 1154.16 630.721 1153.73 635.693C1153.3 640.664 1139.28 715.64 1139.28 715.64C1136.43 723.193 1134.09 730.925 1132.25 738.787L1114.37 754.497C1114.37 754.497 1077.48 757.817 1066.8 755.332L1067.11 757.39C1057.69 755.24 1048.1 753.94 1038.45 753.506C1033.18 752.829 1027.82 753.545 1022.91 755.584L1022.54 755.759L1022.25 755.895C1016.63 756.663 1011.14 758.205 1005.94 760.478C1005.32 760.73 1004.76 760.983 1004.21 761.235L1004.33 758.691L964.406 756.633L944.017 752.497C944.017 752.497 936.794 746.671 932.541 747.525C928.289 748.38 919.376 742.554 919.376 742.554C917.343 740.961 915.142 739.593 912.813 738.476C912.133 733.777 911.706 730.922 911.706 730.922C911.706 730.922 895.842 667.967 883.958 630.954C875.997 606.234 864.54 594.059 857.783 588.757C854.773 583.514 852.792 580.136 852.792 580.136C851.491 575.592 844.346 565.358 842.52 565.105C842.229 564.639 842.015 564.406 841.899 564.406C841.508 564.365 841.114 564.425 840.753 564.581C837.413 547.959 835.472 527.122 840.578 508.966C847.569 503.22 853.203 496 857.077 487.822C860.951 479.644 862.969 470.711 862.987 461.662C862.987 461.39 862.987 461.118 862.987 460.846C862.987 460.574 862.987 460.283 862.987 460.011C862.983 445.58 857.872 431.615 848.559 420.591L847.899 419.853C848.076 419.728 848.244 419.592 848.404 419.445C849.863 418.262 850.974 416.705 851.621 414.941C852.267 413.177 852.423 411.271 852.074 409.425C851.2 405.697 848.287 402.765 846.792 399.23C845.894 396.51 845.174 393.733 844.637 390.919C843.493 386.922 841.393 383.263 838.52 380.258L838.811 381.035C831.2 372.471 818.112 368.219 806.325 370.122C797.568 371.52 789.412 375.598 780.616 376.86C774.305 377.753 767.878 377.171 761.529 377.811C755.637 378.417 749.902 380.075 744.596 382.705C743.21 383.295 741.98 384.199 741.004 385.346C740.101 386.883 739.495 388.576 739.217 390.337C737.062 398.201 730.227 403.813 725.275 410.377C719.619 417.875 716.345 426.9 715.877 436.281C715.684 438.666 715.914 441.065 716.557 443.369C716.984 444.748 717.644 446.049 717.955 447.447C718.926 451.719 716.693 455.972 715.605 460.205C714.236 465.606 714.721 471.31 716.984 476.401C724.654 493.567 749.839 499.295 755.082 517.316C759.093 519.16 763.33 520.466 767.684 521.2C768.033 522.986 768.344 524.792 768.597 526.617C768.478 526.667 768.368 526.733 768.266 526.812C761.47 533.433 759.781 546.23 759.781 546.23L758.965 546.891C756.189 549.182 746.693 556.872 738.111 562.795C727.916 569.844 710.926 593.457 699.042 600.506C687.158 607.555 677.372 650.995 679.935 666.782C682.498 682.57 693.1 726.844 688.848 743.001C684.595 759.157 695.217 832.89 695.217 832.89C702.344 834.248 709.318 836.317 716.032 839.065L715.819 842.289L715.178 851.998C715.178 851.998 695.935 921.595 703.294 975.172C710.654 1028.75 699.896 1034.26 699.896 1034.26C699.896 1034.26 702.149 1058.01 696.498 1066.3C690.848 1074.6 689.702 1092.81 689.702 1092.81C689.702 1092.81 689.139 1133.69 690.265 1145.24C691.391 1156.8 691.954 1177.85 687.993 1182.82C684.032 1187.79 676.673 1220.35 677.236 1230.3C677.799 1240.24 663.08 1262.9 671.003 1292.16C678.925 1321.43 647.701 1321.99 647.701 1321.99C647.701 1321.99 651.682 1366.65 660.167 1379.43L661.41 1381.26C661.197 1381.99 660.983 1382.77 660.75 1383.61C657.546 1395.26 653.158 1413.65 656.206 1418.09C660.73 1424.74 663.002 1423.61 663.002 1423.61L664.692 1453.44C664.692 1453.44 698.673 1482.16 724.732 1481.07C750.79 1479.98 745.684 1453.44 745.684 1453.44L723.489 1395.88L722.732 1393.94L747.392 1347.33C747.392 1347.33 754.189 1326.9 755.878 1319.72C757.567 1312.53 766.791 1287.08 766.791 1287.08C766.791 1287.08 790.092 1231.85 790.578 1225.21C791.063 1218.57 792.849 1182.7 797.374 1175.5C801.898 1168.29 814.364 1126.95 814.364 1126.95L814.675 1127.22C816.79 1129.3 818.301 1131.91 819.046 1134.78C819.792 1137.65 819.744 1140.67 818.908 1143.51C816.054 1154 817.763 1175.53 817.763 1175.53C817.763 1175.53 816.636 1193.77 814.364 1203.17C812.093 1212.57 811.549 1289.33 815.51 1307.54C818.675 1322.13 818.578 1349.43 818.423 1359.76C815.762 1370.73 813.432 1384.36 817.763 1385.98C825.141 1388.75 862.521 1388.19 862.521 1388.19C862.521 1388.19 878.366 1382.65 899.9 1402C921.434 1421.34 987.669 1396.48 987.669 1396.48C987.669 1396.48 1008.06 1390.95 967.843 1374.95C939.784 1363.78 921.667 1356.34 909.822 1348.38C910.094 1347.86 910.386 1347.33 910.638 1346.77C910.638 1346.77 894.211 1331.23 907.803 1303.7C921.396 1276.16 920.832 1252.88 920.832 1252.88L923.104 1160.08L916.308 1036.88L911.046 907.594L911.978 907.283C912.871 931.052 917.512 987.638 941.804 976.667C972.387 962.86 946.328 926.955 946.328 926.955L932.6 900.196L936.697 898.798L921.337 849.163C919.863 839.476 919.667 829.637 920.755 819.899C921.059 814.202 920.942 808.49 920.405 802.811C940.522 799.296 959.785 795.567 963.241 796.422C967.319 797.412 990.135 797.606 999.106 797.645C996.174 799.937 993.824 802.209 993.824 802.209L1030.35 826.793C1030.35 826.793 1042.74 820.016 1045.32 812.831C1047.86 812.188 1050.21 810.935 1052.16 809.18C1052.54 817.666 1054.8 826.851 1062.64 827.065C1064.6 827.106 1066.55 826.721 1068.35 825.938L1128.08 814.112L1122.95 846.134L1126.53 852.484C1124.72 879.495 1122.64 908.177 1120.82 933.402L1119.98 938.917L1120.41 939.014C1117.57 977.851 1115.3 1007.27 1115.3 1007.27C1118.65 1000.9 1123.84 995.678 1130.2 992.299L1130.58 1049.93C1130.58 1049.93 1133.57 1141.07 1133.57 1153.49C1133.57 1165.92 1133.98 1193.67 1133.98 1193.67C1133.98 1193.67 1140.37 1227.63 1144.18 1238.82C1147.98 1250.01 1150.97 1300.96 1150.97 1300.96C1150.97 1300.96 1159.9 1315.04 1156.08 1320.38C1152.25 1325.72 1170.95 1337.35 1170.95 1337.35C1170.95 1337.35 1159.05 1353.51 1158.2 1364.28C1158.1 1365.53 1159.32 1366.85 1161.54 1368.17C1160.84 1368.73 1160.12 1369.29 1159.32 1369.84C1153.81 1373.53 1145.73 1376.09 1133.57 1375.04C1100.43 1372.13 1077.07 1402.79 1097.46 1409.01C1117.85 1415.22 1179.01 1416.46 1179.01 1416.46C1179.01 1416.46 1197.54 1404.91 1212.02 1410.11C1211.81 1422.27 1212.41 1433.42 1212.51 1434.89L1212.33 1435.03C1203.67 1442.79 1187.09 1456.15 1170.9 1461.61C1147.59 1469.48 1142.43 1501.38 1172.58 1505.52C1202.74 1509.65 1246.92 1500.55 1246.92 1500.55C1246.92 1500.55 1269.85 1483.57 1287.27 1479.85C1304.68 1476.12 1319.56 1467.83 1316.59 1457.88C1314.65 1451.53 1309.66 1434.89 1306.28 1423.71C1306.08 1423.03 1305.89 1422.39 1305.69 1421.76C1306.22 1420.6 1306.74 1419.4 1307.23 1418.15C1307.23 1418.15 1298.32 1371.76 1305.54 1360.17C1312.76 1348.57 1308.94 1232.57 1308.94 1232.57C1308.94 1232.57 1296.61 1203.17 1302.99 1185.36C1309.38 1167.55 1292.8 1142.27 1292.8 1142.27C1292.8 1142.27 1294.61 1091.61 1299.46 1063.37C1299.68 1062.17 1299.89 1061 1300.1 1059.88C1308.23 1057.46 1316.15 1054.41 1323.79 1050.73C1323.79 1050.73 1328.04 986.92 1330.59 972.433C1330.84 971.074 1331.19 968.88 1331.62 966.025L1333.56 955.792L1335.85 944.14L1343.62 904.429L1357.64 886.292L1393.75 849.396C1393.75 849.396 1402.43 829.9 1398.18 793.023ZM841.2 565.183L840.928 565.377C840.886 565.237 840.854 565.094 840.831 564.95C840.944 565.043 841.068 565.121 841.2 565.183ZM1198.04 610.409L1196.64 613.458L1201.75 608.37L1194.82 616.138L1197.15 611.244L1198.04 610.409ZM1163.56 681.676C1162.22 685.23 1160.78 689.075 1159.28 693.075L1162.02 684.9L1163.56 681.676Z" fill="url(#paint0_linear)"/>
    <path d="M1052.12 797.859C1052.12 797.859 1047.36 829.531 1061.63 829.939C1075.9 830.346 1085.44 805.51 1085.44 805.51L1079.61 785.644L1052.12 797.859Z" fill="#585B8A"/>
    <path opacity="0.2" d="M1052.12 797.859C1052.12 797.859 1047.36 829.531 1061.63 829.939C1075.9 830.346 1085.44 805.51 1085.44 805.51L1079.61 785.644L1052.12 797.859Z" fill="black"/>
    <path d="M732.441 1483.42C707.042 1484.53 673.915 1455.82 673.915 1455.82L672.265 1426.02C672.265 1426.02 670.071 1427.12 665.643 1420.5C662.672 1416.06 666.944 1397.63 670.071 1386.03C671.585 1380.36 672.828 1376.32 672.828 1376.32L728.557 1391.24L731.217 1398.29L752.849 1455.81C752.849 1455.81 757.82 1482.31 732.441 1483.42Z" fill="#636992"/>
    <path d="M988.504 1398.99C988.504 1398.99 923.939 1423.82 903.065 1404.5C882.191 1385.18 866.637 1390.69 866.637 1390.69C866.637 1390.69 830.209 1391.26 823.025 1388.48C818.792 1386.87 821.083 1373.06 823.724 1362.07C825.51 1354.48 827.452 1348.21 827.452 1348.21C827.452 1348.21 890.909 1326.67 900.851 1339.91C903.838 1343.81 907.407 1347.21 911.434 1350.01C922.929 1358.32 940.891 1365.86 969.299 1377.45C1008.37 1393.45 988.504 1398.99 988.504 1398.99Z" fill="#636992"/>
    <path d="M930.561 894.506L948.212 929.829C948.212 929.829 973.61 965.715 943.804 979.502C913.997 993.289 914.56 900.04 914.56 900.04L930.561 894.506Z" fill="#FFD6D6"/>
    <path d="M856.598 588.194C856.598 588.194 875.919 597.03 887.511 634.003C899.104 670.977 914.56 733.913 914.56 733.913C914.56 733.913 925.046 805.102 923.376 822.773C922.314 832.505 922.503 842.334 923.939 852.018L938.833 901.691L909.026 912.177L863.22 736.67L856.598 588.194Z" fill="#DCE6F2"/>
    <path opacity="0.05" d="M856.598 588.194C856.598 588.194 875.919 597.03 887.511 634.003C899.104 670.977 914.56 733.913 914.56 733.913C914.56 733.913 925.046 805.102 923.376 822.773C922.314 832.505 922.503 842.334 923.939 852.018L938.833 901.691L909.026 912.177L863.22 736.67L856.598 588.194Z" fill="black"/>
    <path opacity="0.1" d="M728.557 1391.26L731.217 1398.31L727.955 1404.54C715.256 1410.05 683.799 1405.65 683.799 1405.65C683.799 1405.65 677.974 1398.25 670.012 1386.07C671.527 1380.4 672.77 1376.36 672.77 1376.36L728.557 1391.26Z" fill="black"/>
    <path opacity="0.1" d="M913.454 1352.61C897.356 1389.08 842.637 1375.55 827.433 1370.98C824.928 1370.23 823.549 1369.72 823.549 1369.72C823.549 1369.72 823.646 1366.75 823.685 1362.07C825.471 1354.48 827.413 1348.21 827.413 1348.21C827.413 1348.21 890.871 1326.67 900.813 1339.91C903.799 1343.81 907.368 1347.21 911.395 1350.01C912.003 1350.94 912.692 1351.81 913.454 1352.61Z" fill="black"/>
    <path d="M910.677 1306.26C897.434 1333.84 913.454 1349.31 913.454 1349.31C897.356 1385.76 842.637 1372.25 827.433 1367.66C824.928 1366.93 823.549 1366.42 823.549 1366.42C823.549 1366.42 824.656 1328.32 820.792 1310.11C816.928 1291.89 817.471 1215.19 819.685 1205.81C821.899 1196.43 822.986 1178.19 822.986 1178.19C822.986 1178.19 821.335 1156.68 824.093 1146.19C824.923 1143.36 824.978 1140.36 824.254 1137.49C823.53 1134.63 822.053 1132.02 819.976 1129.92L819.685 1129.63C819.685 1129.63 807.549 1171.03 803.121 1178.18C798.694 1185.32 797.063 1221.23 796.5 1227.85C795.937 1234.47 773.315 1289.68 773.315 1289.68C773.315 1289.68 764.499 1315.06 762.849 1322.22C761.198 1329.39 754.558 1349.84 754.558 1349.84L727.955 1401.18C715.256 1406.7 683.799 1402.29 683.799 1402.29C683.799 1402.29 677.741 1394.52 669.449 1381.86C661.158 1369.2 657.313 1324.48 657.313 1324.48C657.313 1324.48 687.663 1323.91 679.935 1294.67C672.207 1265.42 686.556 1242.78 686.013 1232.84C685.469 1222.9 692.634 1190.35 696.498 1185.38C700.362 1180.41 699.799 1159.44 698.692 1147.84C697.586 1136.25 698.149 1095.41 698.149 1095.41C698.149 1095.41 699.256 1077.2 704.77 1068.93C710.285 1060.65 708.091 1036.9 708.091 1036.9C708.091 1036.9 718.557 1031.39 711.392 977.851C704.227 924.314 723.042 854.775 723.042 854.775L723.683 845.066L724.693 829.337C724.693 829.337 882.54 819.394 895.24 831.531C898.559 834.9 901.284 838.806 903.298 843.085C907.643 852.425 910.712 862.307 912.424 872.466L919.046 1039.7L925.667 1162.78L923.454 1255.5C923.454 1255.5 923.939 1278.65 910.677 1306.26Z" fill="#565988"/>
    <path opacity="0.1" d="M863.88 976.201L847.316 1334.94L827.433 1367.64C824.928 1366.91 823.549 1366.4 823.549 1366.4C823.549 1366.4 824.656 1328.3 820.792 1310.09C816.928 1291.87 817.471 1215.17 819.685 1205.79C821.899 1196.41 822.986 1178.18 822.986 1178.18C822.986 1178.18 821.335 1156.66 824.093 1146.17C824.922 1143.34 824.978 1140.34 824.254 1137.48C823.53 1134.61 822.053 1132 819.976 1129.9L820.248 1127.96L863.88 976.201Z" fill="black"/>
    <path opacity="0.1" d="M685.508 1361.45C685.508 1361.45 728.557 1344.34 735.179 1349.8C741.8 1355.25 684.42 1363.59 684.42 1363.59L685.508 1361.45Z" fill="black"/>
    <path opacity="0.1" d="M897.997 1316.18C896.346 1316.75 854.404 1331.72 858.268 1347.64C862.132 1363.57 897.997 1316.18 897.997 1316.18Z" fill="black"/>
    <path d="M766.927 499.625C766.927 499.625 780.985 533.569 773.548 550.969C766.111 568.368 853.841 598.156 853.841 598.156C853.841 598.156 828.19 531.919 853.025 494.654C877.861 457.39 766.927 499.625 766.927 499.625Z" fill="#FFD6D6"/>
    <path d="M1280.61 1482.31C1263.63 1486.04 1241.28 1503.01 1241.28 1503.01C1241.28 1503.01 1198.24 1512.12 1168.84 1507.98C1139.44 1503.85 1144.43 1471.96 1167.19 1464.1C1182.97 1458.66 1199.15 1445.24 1207.6 1437.55C1211.32 1434.11 1213.54 1431.73 1213.54 1431.73L1295.93 1415.16C1295.93 1415.16 1297.27 1419.76 1299.13 1426.11C1302.43 1437.32 1307.31 1453.94 1309.17 1460.27C1312.06 1470.31 1297.58 1478.58 1280.61 1482.31Z" fill="#505484"/>
    <path d="M1259.5 1418.56C1259.5 1418.56 1224.72 1422.29 1210.24 1414.02C1195.75 1405.74 1175.05 1418.99 1175.05 1418.99C1175.05 1418.99 1115.44 1417.74 1095.57 1411.53C1075.71 1405.32 1098.47 1374.63 1130.76 1377.59C1142.53 1378.65 1150.49 1376.07 1155.87 1372.38C1161.48 1368.53 1165.4 1362.66 1166.8 1355.99L1236.7 1360.13L1246.41 1384.91L1259.5 1418.56Z" fill="#505484"/>
    <path opacity="0.1" d="M1247.48 1396.21C1247.48 1396.21 1166.23 1382.93 1155.87 1372.38C1161.48 1368.53 1165.4 1362.66 1166.8 1355.99L1236.7 1360.13L1246.41 1384.91L1247.48 1396.21Z" fill="black"/>
    <path d="M1127.03 931.363L1127.87 1052.63C1127.87 1052.63 1130.76 1143.71 1130.76 1156.14C1130.76 1168.56 1131.17 1196.27 1131.17 1196.27C1131.17 1196.27 1137.38 1230.22 1141.11 1241.4C1144.84 1252.59 1147.73 1303.54 1147.73 1303.54C1147.73 1303.54 1156.43 1317.62 1152.7 1322.96C1148.97 1328.3 1167.19 1339.93 1167.19 1339.93C1167.19 1339.93 1155.54 1356.09 1154.78 1366.85C1154.02 1377.61 1247.48 1392.89 1247.48 1392.89L1211.07 1019.52L1182.08 925.984L1127.03 931.363Z" fill="#575988"/>
    <path opacity="0.1" d="M1127.03 931.363L1127.87 1052.63C1127.87 1052.63 1130.76 1143.71 1130.76 1156.14C1130.76 1168.56 1131.17 1196.27 1131.17 1196.27C1131.17 1196.27 1137.38 1230.22 1141.11 1241.4C1144.84 1252.59 1147.73 1303.54 1147.73 1303.54C1147.73 1303.54 1156.43 1317.62 1152.7 1322.96C1148.97 1328.3 1167.19 1339.93 1167.19 1339.93C1167.19 1339.93 1155.54 1356.09 1154.78 1366.85C1154.02 1377.61 1247.48 1392.89 1247.48 1392.89L1211.07 1019.52L1182.08 925.984L1127.03 931.363Z" fill="black"/>
    <path opacity="0.1" d="M1299.13 1426.21C1272.08 1490.7 1207.75 1440.93 1207.75 1440.93C1207.75 1440.93 1207.75 1439.69 1207.59 1437.55C1211.32 1434.11 1213.54 1431.73 1213.54 1431.73L1295.93 1415.16C1295.93 1415.16 1297.27 1419.86 1299.13 1426.21Z" fill="black"/>
    <path d="M1300.06 1420.64C1273.56 1488.6 1207.75 1437.61 1207.75 1437.61C1207.75 1437.61 1205.67 1402.42 1209.83 1386.29C1213.98 1370.15 1205.26 1321.7 1205.26 1321.7C1205.26 1321.7 1200.29 1278.65 1195.75 1268.72C1191.21 1258.8 1191.61 1238.92 1191.61 1237.27C1191.61 1235.62 1193.26 1222.35 1189.54 1213.25C1185.81 1204.14 1183.71 1181.79 1183.71 1181.79C1183.71 1181.79 1183.71 1150.33 1179.98 1131.71L1167.15 1067.62L1143.96 936.392L1151.21 935.149L1280.97 912.391C1280.97 912.391 1305.4 1036.67 1297.11 1049.41C1295.32 1052.21 1293.75 1058.32 1292.45 1066.21C1287.71 1094.4 1285.95 1145.03 1285.95 1145.03C1285.95 1145.03 1302.08 1170.27 1295.89 1188.08C1289.69 1205.89 1301.71 1235.27 1301.71 1235.27C1301.71 1235.27 1305.44 1351.18 1298.39 1362.77C1291.34 1374.36 1300.06 1420.64 1300.06 1420.64Z" fill="#575988"/>
    <path d="M1287.64 573.3C1287.64 573.3 1170.08 656.082 1196.57 614.682C1210.84 592.389 1208.22 563.999 1202.62 542.56C1199.8 531.656 1195.89 521.06 1190.97 510.927C1190.97 510.927 1290.86 468.439 1277.62 506.519C1274.51 515.391 1273.19 524.788 1273.73 534.171C1274.53 548.276 1279.35 561.857 1287.64 573.3Z" fill="#D28690"/>
    <path d="M1075.98 762.886C1075.98 762.886 1026.31 748.535 1018.04 762.614C1009.77 776.692 1020.52 807.588 1035.51 812.559C1050.5 817.53 1084.91 795.723 1084.91 795.723L1075.98 762.886Z" fill="#D28690"/>
    <path d="M1132.84 738.476L1112.14 757.526C1112.14 757.526 1076.12 760.827 1065.77 758.342C1065.77 758.342 1075.3 822.093 1061.63 829.958L1145.24 812.986L1132.84 738.476Z" fill="#585B8A"/>
    <path opacity="0.1" d="M1132.84 738.476L1112.14 757.526C1112.14 757.526 1076.12 760.827 1065.77 758.342C1065.77 758.342 1075.3 822.093 1061.63 829.958L1145.24 812.986L1132.84 738.476Z" fill="black"/>
    <path opacity="0.1" d="M867.084 464.846C867.084 481.327 860.537 497.132 848.884 508.786C837.231 520.439 821.427 526.986 804.947 526.986C773.063 511.665 742.81 499.198 742.81 464.846C742.479 456.486 743.84 448.145 746.811 440.323C749.783 432.501 754.303 425.36 760.101 419.328C765.899 413.296 772.855 408.497 780.553 405.218C788.251 401.94 796.532 400.25 804.898 400.25C813.265 400.25 821.545 401.94 829.243 405.218C836.941 408.497 843.898 413.296 849.696 419.328C855.494 425.36 860.014 432.501 862.985 440.323C865.956 448.145 867.317 456.486 866.987 464.846H867.084Z" fill="black"/>
    <path d="M867.084 463.176C867.093 477.79 861.942 491.938 852.539 503.125C843.136 514.312 830.085 521.819 815.688 524.322C801.291 526.826 786.472 524.165 773.845 516.809C761.218 509.453 751.594 497.874 746.67 484.115C741.746 470.356 741.838 455.299 746.931 441.601C752.023 427.904 761.789 416.444 774.505 409.243C787.221 402.043 802.072 399.564 816.437 402.244C830.803 404.924 843.76 412.591 853.025 423.892C862.099 434.975 867.065 448.853 867.084 463.176Z" fill="#FFD6D6"/>
    <path opacity="0.1" d="M903.298 843.143C897.15 846.961 890.717 850.298 884.055 853.125C884.055 853.125 852.598 848.561 848.054 853.94C843.511 859.319 803.393 861.397 803.393 861.397C803.393 861.397 742.13 858.504 733.023 850.639C730.207 848.358 727.074 846.501 723.722 845.124L724.732 829.395C724.732 829.395 882.579 819.452 895.279 831.589C898.584 834.961 901.296 838.867 903.298 843.143Z" fill="black"/>
    <path d="M910.968 832.016C909.725 839.046 884.055 849.804 884.055 849.804C884.055 849.804 852.598 845.26 848.054 850.639C843.511 856.018 803.393 858.096 803.393 858.096C803.393 858.096 742.13 855.183 733.023 847.318C723.916 839.454 703.625 835.667 703.625 835.667C703.625 835.667 693.275 761.992 697.43 745.855C701.586 729.718 691.217 685.405 688.731 669.676C686.246 653.946 695.76 610.487 707.353 603.458C718.945 596.428 735.509 572.815 745.431 565.785C753.8 559.862 763.043 552.192 765.742 549.881L766.538 549.221C766.538 549.221 768.208 536.385 774.83 529.802C781.451 523.219 842.287 571.611 842.287 571.611C842.287 571.611 842.715 575.339 846.851 568.31C847.783 566.737 855.802 578.31 857.2 583.204C857.2 583.204 890.308 641.169 892.385 653.111C894.463 665.054 903.143 704.027 904.793 713.543C905.221 715.989 905.92 724.572 906.735 736.068C906.89 738.321 907.026 740.709 907.201 743.195C908.424 762.264 909.745 786.615 910.541 805.024C910.541 807.121 910.716 809.141 910.774 811.083C911.193 818.053 911.258 825.04 910.968 832.016Z" fill="#DCE6F2"/>
    <path opacity="0.1" d="M700.77 682.57C700.77 682.57 723.528 710.3 730.984 710.3C738.441 710.3 700.77 682.57 700.77 682.57Z" fill="black"/>
    <path opacity="0.1" d="M748.713 742.185C748.713 742.185 711.45 782.751 716.421 790.208C721.392 797.665 748.713 742.185 748.713 742.185Z" fill="black"/>
    <path opacity="0.1" d="M721.392 822.909C721.392 822.909 764.111 776.129 766.053 759.992L721.392 822.909Z" fill="black"/>
    <path opacity="0.1" d="M775.199 826.21C775.199 826.21 824.462 800.131 828.598 779.43C832.734 758.73 775.199 826.21 775.199 826.21Z" fill="black"/>
    <path opacity="0.1" d="M837.705 574.543L830.87 591.088L842.248 596.467L853.433 627.731C853.433 627.731 884.269 689.405 883.026 721.485C881.783 753.565 888.618 801.781 888.618 801.781L906.405 798.48L898.017 704.124C896.71 689.515 893.051 675.213 887.181 661.772C872.967 629.226 846.52 569.145 844.85 569.145C842.579 569.145 844.171 569.98 844.171 569.98L837.705 574.543Z" fill="black"/>
    <path d="M839.355 572.873L832.52 589.437L843.918 594.816L855.084 626.08C855.084 626.08 885.919 687.754 884.676 719.834C883.434 751.914 890.269 800.131 890.269 800.131L908.075 796.83L899.667 702.474C898.376 687.864 894.723 673.561 888.851 660.121C874.637 627.556 848.19 567.494 846.54 567.494C844.249 567.494 845.841 568.329 845.841 568.329L839.355 572.873Z" fill="#575989"/>
    <path d="M1040.93 816.151C1032.27 815.491 1011.49 804.985 1003.24 800.616L999.746 798.674L1000.17 766.614C1002.21 765.414 1004.33 764.344 1006.5 763.41C1017.53 758.594 1040.15 752.05 1051.49 773.119C1066.8 801.374 1051.9 816.889 1040.93 816.151Z" fill="#FFD6D6"/>
    <path opacity="0.1" d="M853.025 423.892C852.136 424.45 851.157 424.85 850.132 425.077C842.928 426.65 834.734 420.455 828.559 424.436C824.792 426.883 823.918 431.951 823.413 436.417C822.533 444.185 821.653 451.901 820.772 459.564C820.588 462.293 820.012 464.981 819.064 467.546C816.015 474.517 807.646 477.799 800.015 477.682C797.025 477.895 794.073 476.918 791.801 474.964C790.461 473.604 789.743 471.701 788.267 470.458C778.558 462.322 775.606 482.265 778.17 487.935C782.286 497.198 796.908 506.131 790.772 517.898C789.74 519.811 788.175 521.383 786.267 522.423C777.02 519.527 768.579 514.509 761.617 507.769C754.655 501.028 749.366 492.754 746.172 483.605C742.979 474.456 741.968 464.688 743.223 455.079C744.477 445.471 747.961 436.288 753.396 428.266C758.831 420.244 766.067 413.605 774.526 408.878C782.985 404.151 792.431 401.468 802.112 401.043C811.792 400.618 821.437 402.463 830.278 406.43C839.118 410.397 846.908 416.377 853.025 423.892Z" fill="black"/>
    <path d="M786.616 470.381C788.073 471.604 788.811 473.507 790.15 474.866C792.424 476.819 795.375 477.796 798.364 477.585C805.995 477.702 814.364 474.439 817.394 467.429C818.36 464.875 818.942 462.192 819.122 459.467L821.763 436.32C822.268 431.854 823.122 426.786 826.908 424.339C833.083 420.455 841.278 426.553 848.482 424.98C851.078 424.32 853.327 422.696 854.769 420.438C856.212 418.18 856.741 415.457 856.249 412.823C855.414 409.114 852.579 406.182 851.122 402.648C850.24 399.932 849.533 397.163 849.006 394.356C844.986 379.287 827.297 370.821 811.918 373.345C803.374 374.763 795.432 378.841 786.869 380.083C780.733 380.977 774.461 380.394 768.267 381.054C762.512 381.648 756.916 383.301 751.761 385.928C750.408 386.527 749.212 387.431 748.266 388.569C747.387 390.107 746.794 391.791 746.519 393.541C744.441 401.308 737.761 407.037 732.926 413.581C727.396 421.11 724.196 430.097 723.722 439.427C723.532 441.81 723.755 444.208 724.382 446.515C724.79 447.874 725.431 449.195 725.741 450.593C726.693 454.846 724.518 459.098 723.45 463.332C722.123 468.734 722.601 474.422 724.809 479.527C732.266 496.674 756.829 502.402 761.936 520.403C766.471 522.578 771.369 523.895 776.383 524.287C781.393 524.384 786.791 522.229 789.121 517.782C795.238 506.131 780.636 497.081 776.519 487.838C773.937 482.148 776.83 462.225 786.616 470.381Z" fill="#353045"/>
    <path opacity="0.1" d="M1277.71 506.519C1274.61 515.391 1273.29 524.788 1273.83 534.171C1270.84 536.715 1267.58 529.103 1264.12 531.064C1254.64 536.54 1243.69 549.57 1231.96 549.57C1221.79 549.577 1211.77 547.175 1202.7 542.56C1199.87 531.656 1195.97 521.06 1191.05 510.927C1191.05 510.927 1290.96 468.439 1277.71 506.519Z" fill="black"/>
    <path d="M1296.47 481.682C1296.47 494.457 1292.68 506.944 1285.59 517.565C1278.49 528.186 1268.4 536.464 1256.6 541.353C1244.8 546.241 1231.82 547.52 1219.29 545.028C1206.76 542.536 1195.25 536.385 1186.22 527.352C1177.19 518.32 1171.04 506.811 1168.54 494.283C1166.05 481.754 1167.33 468.768 1172.22 456.966C1177.11 445.164 1185.39 435.077 1196.01 427.98C1206.63 420.884 1219.11 417.096 1231.89 417.096C1240.37 417.093 1248.77 418.762 1256.6 422.007C1264.44 425.252 1271.56 430.009 1277.56 436.007C1283.56 442.005 1288.31 449.126 1291.56 456.963C1294.8 464.8 1296.47 473.2 1296.47 481.682Z" fill="#D28690"/>
    <path d="M1293.71 587.651C1293.71 587.651 1281.56 600.894 1279.91 601.982C1278.26 603.069 1243.01 751.506 1242.39 753.234C1241.77 754.963 1200.43 888.991 1200.43 888.991L1134.2 921.556L1139.73 757.623L1188.27 622.43C1188.27 622.43 1204.29 604.215 1209.25 597.593C1214.2 590.971 1276.02 551.221 1276.02 551.221L1286.59 572.989L1293.71 587.651Z" fill="#F0F3F7"/>
    <path opacity="0.1" d="M1284.96 576.31L1208.8 630.838L1207.58 600.894C1212.55 594.272 1274.35 554.542 1274.35 554.542L1284.96 576.31Z" fill="black"/>
    <path d="M1286.61 572.989L1210.45 627.517L1209.26 597.593C1214.24 590.952 1276.04 551.221 1276.04 551.221L1286.61 572.989Z" fill="#F0F3F7"/>
    <path d="M1206.72 584.272L1209.26 597.593L1192.24 614.895L1205.83 584.466C1205.83 584.466 1176.7 604.759 1167.96 610.138C1159.23 615.517 1150.49 633.731 1150.16 638.703C1149.83 643.674 1136.08 718.591 1136.08 718.591C1136.08 718.591 1125.73 746.321 1128.64 754.186C1131.55 762.051 1112.91 1010.01 1112.91 1010.01C1115.41 1005.19 1118.93 1000.99 1123.23 997.687C1127.53 994.388 1132.51 992.077 1137.81 990.92L1131.17 844.386C1131.17 844.386 1139.24 746.904 1139.65 745.661C1140.06 744.418 1158.49 687.91 1158.49 687.91L1206.72 584.272Z" fill="#585B8A"/>
    <path opacity="0.1" d="M1210.93 599.244L1209.61 626.43C1209.61 626.43 1191.19 684.589 1184.99 694.104C1178.8 703.62 1159.94 760.342 1159.94 760.342L1149.32 858.873L1131.11 867.164L1122.14 850.639L1137.05 755.487C1137.05 755.487 1165.19 675.19 1169.34 666.899L1190.1 623.168L1210.93 599.244Z" fill="black"/>
    <path d="M1209.26 597.593L1207.96 624.779C1207.96 624.779 1189.54 682.939 1183.32 692.454C1177.11 701.969 1158.29 758.691 1158.29 758.691L1147.73 857.203L1129.52 865.475L1120.41 848.93L1135.32 753.778C1135.32 753.778 1163.46 673.462 1167.59 665.19L1188.51 621.517L1209.26 597.593Z" fill="#663D5C"/>
    <path d="M994.581 805.102L1030.17 829.744C1030.17 829.744 1055.28 815.666 1040.66 806.558C1026.04 797.451 1013.07 796.072 1008.37 796.072C1003.67 796.072 994.581 805.102 994.581 805.102Z" fill="#D28690"/>
    <path d="M1021.16 759.546C1020.37 760.04 1019.72 760.73 1019.26 761.549C1018.81 762.368 1018.58 763.29 1018.58 764.225C1018.58 771.779 1019.44 791.781 1025.77 782.751C1033.53 771.702 1032.12 761.779 1043.98 768.944C1051.35 773.537 1057.81 779.464 1063.01 786.421L1059.71 762.691C1059.71 762.691 1035.32 750.652 1021.16 759.546Z" fill="#D28690"/>
    <path opacity="0.1" d="M1297.15 1049.33C1295.36 1052.13 1293.79 1058.24 1292.49 1066.13C1219.91 1087.9 1166.8 1041.87 1166.8 1041.87C1160.37 1020.1 1155.12 997.996 1151.07 975.657C1149.77 968.006 1150.06 953.17 1151.26 935.072L1281.03 912.313C1281.03 912.313 1305.44 1036.5 1297.15 1049.33Z" fill="black"/>
    <path d="M1371.66 678.841C1368.36 689.619 1369.6 711.542 1369.6 711.542L1339.79 852.29C1339.79 852.29 1325.31 960.743 1322.82 975.23C1320.33 989.716 1316.2 1053.47 1316.2 1053.47C1231.75 1094.87 1166.68 1038.57 1166.68 1038.57C1160.26 1016.79 1155.01 994.681 1150.95 972.336C1146.8 947.752 1159.03 849.26 1164.82 805.51C1166.55 792.557 1167.71 784.402 1167.71 784.402L1189.44 703.678C1189.44 703.678 1216.14 635.576 1226.08 615.711C1236.02 595.845 1275.95 551.221 1275.95 551.221C1280.9 548.075 1288.82 559.183 1294.7 569.3C1299.15 576.951 1302.47 584.058 1302.47 584.058C1302.47 584.058 1352.14 605.574 1359.58 617.07C1367.02 628.566 1365.79 652.257 1366.63 653.5C1367.46 654.742 1374.98 668.083 1371.66 678.841Z" fill="#585B8A"/>
    <path opacity="0.1" d="M1254.53 628.76C1254.53 628.76 1258.26 650.703 1248.7 657.325C1239.48 663.733 1170.82 798.752 1166.55 807.18C1168.27 794.208 1169.44 786.052 1169.44 786.052L1191.17 705.348C1191.17 705.348 1217.89 637.246 1227.81 617.361C1237.73 597.477 1277.69 552.872 1277.69 552.872C1282.64 549.726 1290.55 560.833 1296.43 570.951C1287.56 589.379 1269.05 624.216 1254.53 628.76Z" fill="black"/>
    <path d="M1252.88 627.11C1252.88 627.11 1256.59 649.053 1247.05 655.675C1237.52 662.296 1169.19 797.082 1164.86 805.51C1166.58 792.557 1167.75 784.402 1167.75 784.402L1189.48 703.678C1189.48 703.678 1216.18 635.576 1226.12 615.711C1236.06 595.845 1275.98 551.221 1275.98 551.221C1280.94 548.075 1288.86 559.183 1294.74 569.3C1285.91 587.709 1267.38 622.566 1252.88 627.11Z" fill="#585B8A"/>
    <path d="M1351.38 825.395L1328.02 946.937V946.956L1325.79 958.588V958.607L1320.76 984.764L1299.31 980.22L1289.31 978.104L1150.91 948.781L1140.74 946.626L1117.52 941.713L1122.06 911.536L1123.94 898.992L1140.7 787.722L1351.38 825.395Z" fill="#AF4A00"/>
    <path d="M1222.24 924.741C1222.24 924.741 1167.19 944.606 1179.19 968.2C1191.19 991.794 1268.18 949.985 1268.18 949.985L1222.24 924.741Z" fill="#D28690"/>
    <path opacity="0.1" d="M1261.56 1094.03C1261.56 1095.68 1263.63 1116.81 1271.91 1124.25C1280.18 1131.69 1261.56 1094.03 1261.56 1094.03Z" fill="black"/>
    <path opacity="0.1" d="M1206.1 1168.95C1206.1 1168.95 1216.02 1196.27 1255.34 1207.46C1294.66 1218.64 1206.1 1168.95 1206.1 1168.95Z" fill="black"/>
    <path opacity="0.1" d="M1296.47 481.682C1296.47 493.036 1293.48 504.19 1287.8 514.019C1282.12 523.848 1273.94 532.005 1264.1 537.667C1260.39 535.591 1257.1 532.845 1254.39 529.569C1251.58 526.151 1249.38 521.491 1251.07 517.413C1252.43 514.131 1256.02 512.053 1256.9 508.655C1257.31 506.577 1257.2 504.429 1256.59 502.402C1255.87 499.198 1255.19 495.994 1254.49 492.809C1253.89 490.091 1252.82 486.887 1250.12 486.226C1247.42 485.566 1245.17 487.819 1243.05 489.489C1237.87 493.586 1227.93 496.363 1221.69 493.004C1215.46 489.644 1217.21 478.401 1216.2 472.323C1216.18 471.795 1216.06 471.276 1215.82 470.803C1215.59 470.33 1215.25 469.914 1214.84 469.585C1213.93 469.284 1212.96 469.217 1212.02 469.39C1208.66 469.39 1205.96 466.38 1204.99 463.157C1204.31 459.866 1203.93 456.518 1203.87 453.156C1203.5 449.797 1202.27 446.243 1199.4 444.515C1197.1 443.446 1194.56 443.03 1192.04 443.311L1179.87 443.447C1187.94 432.527 1199.26 424.431 1212.2 420.311C1225.14 416.191 1239.05 416.256 1251.95 420.497C1264.86 424.738 1276.1 432.939 1284.07 443.934C1292.04 454.929 1296.35 468.158 1296.37 481.741L1296.47 481.682Z" fill="black"/>
    <path d="M1244.78 489.489C1246.9 487.819 1249.23 485.605 1251.85 486.246C1254.47 486.887 1255.6 490.13 1256.2 492.809L1258.29 502.383C1258.92 504.415 1259.03 506.569 1258.62 508.655C1257.63 512.073 1254.06 514.131 1252.68 517.413C1250.99 521.491 1253.21 526.151 1256 529.55C1261.1 535.697 1268.16 539.911 1275.98 541.492C1278.03 541.983 1280.15 542.03 1282.22 541.628C1286.84 540.56 1289.98 536.307 1292.47 532.327C1305.31 512.325 1316.35 490.401 1318.61 466.749C1319.22 461.925 1319 457.03 1317.95 452.282C1316.89 448.592 1315.41 445.04 1313.52 441.699C1310.21 434.875 1306.02 428.521 1301.03 422.805C1292.2 413.29 1280 407.444 1267.48 403.988C1253.39 400.079 1238.68 398.925 1224.16 400.59C1220.27 401.036 1216.55 401.677 1212.72 401.93C1207.92 402.153 1203.11 402.075 1198.31 401.697L1169.73 399.988C1168.1 403.308 1169.73 407.25 1171.67 410.357C1173.61 413.464 1176.02 416.688 1175.87 420.377C1175.71 424.067 1173.09 426.98 1171.07 430.087C1169.05 433.194 1167.52 437.213 1169.54 440.243C1171.56 443.272 1175.67 443.466 1179.24 443.427L1193.65 443.272C1196.16 443.014 1198.69 443.451 1200.97 444.534C1203.85 446.263 1205.07 449.836 1205.44 453.176C1205.52 456.536 1205.9 459.882 1206.57 463.176C1207.56 466.4 1210.24 469.449 1213.59 469.41C1214.54 469.222 1215.51 469.296 1216.41 469.623C1216.82 469.949 1217.16 470.361 1217.39 470.831C1217.63 471.301 1217.76 471.817 1217.77 472.342C1218.78 478.42 1216.92 489.644 1223.27 493.023C1229.61 496.402 1239.6 493.586 1244.78 489.489Z" fill="#663D5C"/>
    <path opacity="0.1" d="M1326.86 617.051C1319.72 616.292 1312.53 617.984 1306.48 621.848C1300.43 625.712 1295.87 631.518 1293.56 638.314C1285.79 660.432 1272.84 700.338 1276.08 716.106C1280.64 738.457 1286.02 775.721 1286.02 775.721C1286.02 775.721 1309.62 789.315 1297.67 803.024C1285.73 816.734 1282.35 836.153 1282.35 836.153C1282.35 836.153 1267.03 842.774 1263.73 856.853C1260.43 870.932 1238.06 890.37 1238.06 890.37L1204.55 923.906C1204.55 923.906 1260 980.22 1271.19 983.094L1305.54 942.936L1346.1 889.127L1381.29 852.231C1381.29 852.231 1389.56 832.813 1385.42 795.917C1381.29 759.021 1365.13 723.893 1365.13 723.893L1366.37 711.465C1366.37 711.465 1370.18 622.43 1326.86 617.051Z" fill="black"/>
    <path d="M1330.16 617.051C1323.03 616.302 1315.85 617.998 1309.81 621.861C1303.76 625.724 1299.21 631.525 1296.9 638.314C1289.13 660.432 1276.18 700.338 1279.42 716.106C1283.97 738.457 1289.34 775.721 1289.34 775.721C1289.34 775.721 1312.94 789.314 1300.99 803.024C1289.05 816.734 1285.69 836.153 1285.69 836.153C1285.69 836.153 1270.37 842.774 1267.05 856.853C1263.73 870.932 1241.4 890.37 1241.4 890.37L1207.87 923.906C1207.87 923.906 1263.32 980.22 1274.51 983.094L1308.86 942.936L1349.33 889.127L1384.51 852.231C1384.51 852.231 1392.8 832.812 1388.65 795.917C1384.49 759.021 1368.37 723.893 1368.37 723.893L1369.62 711.465C1369.62 711.465 1373.48 622.43 1330.16 617.051Z" fill="#585B8A"/>
    <path opacity="0.1" d="M1295.5 743.02C1295.5 743.02 1330.68 786.052 1345.6 776.537C1360.51 767.022 1295.5 743.02 1295.5 743.02Z" fill="black"/>
    <path opacity="0.1" d="M1308.74 709.892C1312.47 711.135 1343.11 753.778 1358.84 748.729C1374.57 743.68 1308.74 709.892 1308.74 709.892Z" fill="black"/>
    <path opacity="0.1" d="M1317.44 783.139C1317.44 783.139 1319.52 807.568 1344.76 804.248C1370.01 800.927 1317.44 783.139 1317.44 783.139Z" fill="black"/>
    <path opacity="0.1" d="M1205.89 586.117L1192.24 616.546L1209.28 599.244L1205.89 586.117Z" fill="black"/>
    <path d="M1205.89 584.466L1192.24 614.895L1209.28 597.593L1205.89 584.466Z" fill="#F0F3F7"/>
    <path opacity="0.3" d="M1150.91 948.781L1140.74 946.626L1122.06 911.536L1123.94 898.992L1150.91 948.781Z" fill="black"/>
    <path opacity="0.3" d="M1328.02 946.956L1325.79 958.588V958.607L1299.31 980.22L1289.31 978.104L1328.02 946.956Z" fill="black"/>
    <path opacity="0.1" d="M910.716 811.161C905.589 812.015 900.619 812.792 896.075 813.374C870.832 816.695 810.792 786.887 810.792 786.887C810.792 786.887 737.528 725.621 716.421 667.675C695.314 609.73 741.664 601.03 741.664 601.03C759.14 591.088 797.141 618.818 802.52 623.381C807.898 627.945 812.461 639.518 812.034 646.975C811.607 654.432 824.462 663.947 824.462 663.947C824.462 663.947 846.404 702.027 851.783 706.163C857.161 710.3 858.404 714.028 860.055 721.077C861.705 728.126 876.191 733.913 882.405 733.486C888.618 733.058 895.997 735.563 895.997 738.865C895.997 741.525 902.075 742.845 907.065 743.273C908.541 764.497 909.997 792.305 910.716 811.161Z" fill="black"/>
    <path opacity="0.1" d="M910.483 805.102C906.599 805.723 902.871 806.287 899.376 806.753C874.133 810.073 814.112 780.265 814.112 780.265C814.112 780.265 740.849 718.999 719.741 661.054C698.634 603.108 744.985 594.408 744.985 594.408C762.461 584.466 800.442 612.196 805.821 616.759C811.199 621.323 815.763 632.896 815.355 640.353C814.947 647.81 827.763 657.325 827.763 657.325C827.763 657.325 849.705 695.405 855.084 699.542C860.462 703.678 861.705 707.406 863.375 714.455C865.045 721.504 879.511 727.272 885.725 726.864C891.939 726.456 899.317 728.942 899.317 732.243C899.317 734.185 902.774 735.486 906.619 736.127C906.774 738.379 906.91 740.768 907.085 743.253C908.366 762.342 909.687 786.693 910.483 805.102Z" fill="black"/>
    <path opacity="0.1" d="M1006.5 763.41L1004.93 800.616H1003.24L999.746 798.674L1000.17 766.614C1002.21 765.414 1004.33 764.344 1006.5 763.41Z" fill="black"/>
    <path d="M741.664 597.71C741.664 597.71 695.314 606.409 716.421 664.355C737.528 722.3 810.792 783.586 810.792 783.586C810.792 783.586 870.812 813.374 896.075 810.073C921.337 806.772 959.804 798.072 964.775 799.315C969.746 800.558 1003.28 800.558 1003.28 800.558L1004.93 761.721L966.095 759.643L946.231 755.507C946.231 755.507 939.182 749.681 935.046 750.535C930.91 751.39 922.23 745.564 922.23 745.564C922.23 745.564 915.59 740.185 910.58 740.185C905.57 740.185 896.094 738.942 896.094 735.641C896.094 732.34 888.638 729.815 882.502 730.262C876.366 730.709 861.705 724.883 859.996 717.756C858.288 710.63 857.103 706.998 851.724 702.862C846.346 698.726 824.403 660.626 824.403 660.626C824.403 660.626 811.568 651.111 811.976 643.674C812.384 636.236 807.84 624.624 802.461 620.061C797.083 615.497 759.024 587.787 741.664 597.71Z" fill="#DCE6F2"/>
    <path opacity="0.1" d="M860.89 731C860.89 731 843.084 748.807 847.627 752.108L860.89 731Z" fill="black"/>
    <path opacity="0.1" d="M879.919 745.079C879.919 745.079 856.734 762.886 862.948 764.128C869.162 765.371 879.919 745.079 879.919 745.079Z" fill="black"/>
    <path opacity="0.1" d="M840.579 771.488C843.899 773.158 893.143 802.558 911.784 802.131L840.579 771.488Z" fill="black"/>
    <path opacity="0.1" d="M843.918 574.951C843.918 574.951 835.219 603.516 831.899 603.516C829.297 603.516 785.607 568.135 767.373 553.26L768.169 552.6C768.169 552.6 769.82 539.764 776.441 533.181C783.063 526.598 843.918 574.951 843.918 574.951Z" fill="black"/>
    <path d="M842.248 571.63C842.248 571.63 833.569 600.195 830.248 600.195C827.627 600.195 783.937 564.814 765.703 549.939L766.5 549.279C766.5 549.279 768.169 536.443 774.791 529.86C781.412 523.277 842.248 571.63 842.248 571.63Z" fill="#DCE6F2"/>
    <g opacity="0.15">
    <path opacity="0.15" d="M725.023 479.313C730.848 492.615 746.888 499.062 756.189 509.665C750.655 496.635 734.479 490.246 725.023 479.313Z" fill="black"/>
    <path opacity="0.15" d="M784.383 509.956C782.073 514.403 776.616 516.559 771.645 516.462C767.226 516.144 762.899 515.04 758.868 513.199C760.33 515.355 761.444 517.727 762.169 520.229C766.703 522.407 771.601 523.724 776.616 524.112C781.645 524.229 787.044 522.074 789.354 517.607C793.063 510.519 789.199 504.461 784.675 498.732C785.518 500.493 785.931 502.428 785.88 504.379C785.83 506.331 785.317 508.242 784.383 509.956Z" fill="black"/>
    <path opacity="0.15" d="M856.443 412.629C855.608 408.901 852.773 405.969 851.317 402.454C850.425 399.734 849.718 396.958 849.2 394.143C848.097 390.162 846.052 386.506 843.239 383.482C843.63 384.438 843.96 385.417 844.229 386.414C844.773 389.241 845.5 392.03 846.404 394.764C847.86 398.279 850.695 401.211 851.53 404.939C852.022 407.573 851.493 410.296 850.051 412.554C848.608 414.812 846.36 416.436 843.763 417.096C836.578 418.669 828.384 412.455 822.209 416.455C818.423 418.882 817.549 423.95 817.044 428.417C816.177 436.184 815.296 443.906 814.403 451.583C814.228 454.307 813.652 456.99 812.695 459.545C809.646 466.536 801.277 469.818 793.646 469.701C790.664 469.9 787.723 468.924 785.451 466.982C784.347 465.419 783.161 463.915 781.898 462.477C772.189 454.321 769.237 474.264 771.801 479.954C773.084 482.514 774.675 484.907 776.538 487.081C774.403 480.673 777.393 462.225 786.869 470.128C788.132 471.561 789.312 473.066 790.403 474.633C792.683 476.573 795.629 477.548 798.617 477.352C806.248 477.469 814.617 474.187 817.665 467.196C818.625 464.634 819.201 461.945 819.374 459.215C820.254 451.447 821.135 443.732 822.015 436.068C822.52 431.601 823.394 426.533 827.161 424.106C833.355 420.106 841.549 426.32 848.734 424.727C851.311 424.059 853.538 422.44 854.969 420.195C856.399 417.95 856.926 415.247 856.443 412.629Z" fill="black"/>
    </g>
    <path opacity="0.1" d="M1286.35 536.676C1284.29 537.061 1282.16 537.009 1280.12 536.521C1272.3 534.941 1265.26 530.734 1260.16 524.598C1257.34 521.18 1255.13 516.52 1256.84 512.442C1258.2 509.16 1261.77 507.102 1262.66 503.684C1263.07 501.598 1262.95 499.444 1262.33 497.412L1260.24 487.838C1259.63 485.12 1258.59 481.915 1255.89 481.275C1253.19 480.634 1250.94 482.848 1248.82 484.518C1243.63 488.615 1233.67 491.411 1227.46 488.032C1221.25 484.654 1222.97 473.429 1221.96 467.351C1221.95 466.827 1221.82 466.312 1221.58 465.843C1221.35 465.374 1221.01 464.961 1220.6 464.633C1219.69 464.316 1218.72 464.242 1217.77 464.419C1214.41 464.419 1211.73 461.409 1210.74 458.186C1210.07 454.893 1209.7 451.545 1209.63 448.185C1209.25 444.845 1208.04 441.272 1205.15 439.544C1202.87 438.47 1200.34 438.033 1197.83 438.282L1183.42 438.437C1179.87 438.437 1175.65 438.204 1173.71 435.252C1171.77 432.301 1173.21 428.106 1175.24 425.096C1177.28 422.086 1179.87 419.096 1180.04 415.387C1180.22 411.678 1177.81 408.474 1175.85 405.367C1174.72 403.668 1173.89 401.79 1173.4 399.813L1169.26 399.56C1167.65 402.862 1169.26 406.804 1171.21 409.93C1173.15 413.057 1175.57 416.261 1175.4 419.931C1175.23 423.601 1172.64 426.553 1170.6 429.64C1168.57 432.728 1167.07 436.767 1169.09 439.796C1171.11 442.826 1175.21 443.039 1178.8 443L1193.21 442.825C1195.72 442.582 1198.25 443.025 1200.53 444.107C1203.42 445.835 1204.64 449.408 1205.01 452.748C1205.07 456.11 1205.45 459.458 1206.14 462.749C1207.11 465.953 1209.81 469.021 1213.17 468.963C1214.11 468.797 1215.08 468.87 1215.98 469.177C1216.39 469.508 1216.73 469.924 1216.96 470.397C1217.2 470.869 1217.33 471.387 1217.34 471.915C1218.35 477.973 1216.49 489.217 1222.84 492.596C1229.19 495.975 1239.09 493.178 1244.2 489.081C1246.31 487.411 1248.66 485.197 1251.28 485.819C1253.91 486.44 1255.03 489.702 1255.62 492.382L1257.73 501.975C1258.35 504.009 1258.45 506.163 1258.04 508.247C1257.07 511.646 1253.48 513.723 1252.12 516.986C1250.43 521.064 1252.62 525.744 1255.44 529.142C1260.57 535.304 1267.67 539.514 1275.54 541.065C1277.58 541.553 1279.71 541.606 1281.77 541.22C1285.11 540.203 1287.97 538.027 1289.85 535.084C1288.79 535.82 1287.6 536.359 1286.35 536.676Z" fill="black"/>
    <path d="M407.561 1166.49C407.561 1168.93 407.27 1170.91 406.939 1170.91C406.609 1170.91 406.318 1168.97 406.318 1166.49C406.318 1164 406.668 1165.2 406.998 1165.2C407.328 1165.2 407.561 1164.04 407.561 1166.49Z" fill="#FFD037"/>
    <path d="M410.94 1169.42C408.804 1170.58 406.92 1171.36 406.765 1170.99C406.609 1170.62 408.202 1169.51 410.357 1168.33C412.512 1167.15 411.658 1168.02 411.813 1168.33C411.969 1168.64 413.095 1168.23 410.94 1169.42Z" fill="#FFD037"/>
    </g>
    <defs>
    <linearGradient id="paint0_linear" x1="1023.57" y1="1506.6" x2="1023.57" y2="369.636" gradientUnits="userSpaceOnUse">
    <stop stop-color="#808080" stop-opacity="0.25"/>
    <stop offset="0.54" stop-color="#808080" stop-opacity="0.12"/>
    <stop offset="1" stop-color="#808080" stop-opacity="0.1"/>
    </linearGradient>
    <clipPath id="clip0">
    <rect width="2120" height="1609" fill="white"/>
    </clipPath>
    </defs>
    </svg>